<svg width="104" height="135" viewBox="0 0 104 135" fill="none" xmlns="http://www.w3.org/2000/svg">
<path d="M16.85 130.825L20 128.925L23.15 130.85L22.325 127.25L25.1 124.85L21.45 124.525L20 121.125L18.55 124.5L14.9 124.825L17.675 127.25L16.85 130.825ZM13.825 135L15.45 127.975L10 123.25L17.2 122.625L20 116L22.8 122.625L30 123.25L24.55 127.975L26.175 135L20 131.275L13.825 135Z" fill="black"/>
<path d="M48.85 130.825L52 128.925L55.15 130.85L54.325 127.25L57.1 124.85L53.45 124.525L52 121.125L50.55 124.5L46.9 124.825L49.675 127.25L48.85 130.825ZM45.825 135L47.45 127.975L42 123.25L49.2 122.625L52 116L54.8 122.625L62 123.25L56.55 127.975L58.175 135L52 131.275L45.825 135Z" fill="black"/>
<path d="M80.85 130.825L84 128.925L87.15 130.85L86.325 127.25L89.1 124.85L85.45 124.525L84 121.125L82.55 124.5L78.9 124.825L81.675 127.25L80.85 130.825ZM77.825 135L79.45 127.975L74 123.25L81.2 122.625L84 116L86.8 122.625L94 123.25L88.55 127.975L90.175 135L84 131.275L77.825 135Z" fill="black"/>
<path d="M84.5 36.4V26C84.5 11.44 70.2 0 52 0C33.8 0 19.5 11.44 19.5 26V36.4C8.45 36.4 0 43.16 0 52V88.4C0 97.24 8.45 104 19.5 104H84.5C95.55 104 104 97.24 104 88.4V52C104 43.16 95.55 36.4 84.5 36.4ZM32.5 26C32.5 17.16 40.95 10.4 52 10.4C63.05 10.4 71.5 17.16 71.5 26V36.4H32.5V26ZM59.15 70.2L58.5 70.72V78C58.5 81.12 55.9 83.2 52 83.2C48.1 83.2 45.5 81.12 45.5 78V70.72C41.6 67.6 40.95 62.92 44.85 59.8C48.75 56.68 54.6 56.16 58.5 59.28C62.4 61.88 63.05 67.08 59.15 70.2Z" fill="black"/>
</svg>
