<svg width="56" height="55" viewBox="0 0 56 55" fill="none" xmlns="http://www.w3.org/2000/svg">
<path d="M0 52.3426V31.969C0 31.4727 0.180474 30.9915 0.516357 30.6205L6.44193 23.978C6.82795 23.5469 7.37438 23.3013 7.9509 23.3013H11.4401V21.9377H11.1443C9.93612 21.9377 8.95353 20.9551 8.95353 19.7469V14.6886C8.95353 13.4804 9.93612 12.4979 11.1443 12.4979H12.924L18.0274 6.86305C18.4134 6.43693 18.9548 6.1963 19.5263 6.1963H26.0735C26.0735 6.1963 26.0785 6.1963 26.0735 6.19128C25.7026 5.58469 25.492 4.87783 25.482 4.12585C25.4519 1.88496 27.3118 -0.00500323 29.5527 9.95035e-06C31.7986 9.95035e-06 33.6234 1.82481 33.6234 4.07071C33.6234 4.84775 33.4078 5.57466 33.0318 6.1963V6.20131H41.5693C42.6872 6.20131 43.5946 7.10869 43.5946 8.22663V12.4928H45.3642C46.5724 12.4928 47.555 13.4754 47.555 14.6836V19.7419C47.555 20.9501 46.5724 21.9327 45.3642 21.9327H43.5946V23.2962H53.5157C54.6336 23.2962 55.541 24.2036 55.541 25.3216V45.4244C55.541 46.1764 55.1199 46.8682 54.4531 47.2191L41.2083 54.1373C40.9175 54.2877 40.5967 54.3679 40.2709 54.3679H2.02031C0.907384 54.3629 0 53.4605 0 52.3426Z" fill="white"/>
<path d="M41.5939 25.3071V17.6119H44.271V19.928H45.5543V14.5037H44.271V16.8198H41.5939V8.20215H29.8982V6.10664C30.8758 5.94622 31.6227 5.09398 31.6227 4.07129C31.6227 2.92828 30.6953 2.00586 29.5573 2.00586C28.4143 2.00586 27.4919 2.9333 27.4919 4.07129C27.4919 5.09398 28.2388 5.94622 29.2164 6.10664V8.20215H19.5259L13.45 14.9098V16.8198H12.2468V14.5037H10.9634V19.928H12.2468V17.6119H13.45V25.3071H7.94048L2.00488 31.9596V52.3582H40.2755L53.5403 45.44V25.3071H41.5939Z" fill="#090909"/>
<path d="M39.5187 10.2871H21.6367V23.2111H39.5187V10.2871Z" fill="white"/>
<path d="M36.6814 13.1494H33.6484V16.1824H36.6814V13.1494Z" fill="#090909"/>
<path d="M32.656 19.8276H31.1069V21.3767H32.656V19.8276Z" fill="#090909"/>
<path d="M34.1999 18.2783H32.6509V19.8274H34.1999V18.2783Z" fill="#090909"/>
<path d="M29.5574 18.2783H28.0083V19.8274H29.5574V18.2783Z" fill="#090909"/>
<path d="M31.1067 19.8276H29.5576V21.3767H31.1067V19.8276Z" fill="#090909"/>
<path d="M28.405 13.1494H25.3721V16.1824H28.405V13.1494Z" fill="#090909"/>
<path d="M13.9116 36.7113V42.1205H11.2095V28.605H22.0229V36.7163H13.9116V36.7113ZM19.3208 31.3071H13.9116V34.0092H19.3208V31.3071Z" fill="white"/>
<path d="M25.3213 28.5898H36.1347V42.1104H33.4326V36.7012H28.0234V42.1104H25.3213V28.5898ZM28.0234 31.297V33.9991H33.4326V31.297H28.0234Z" fill="white"/>
<path d="M50.247 42.1205H39.4336V28.605H50.247V42.1205ZM47.5399 31.3071H42.1307V39.4184H44.8328V36.7163H47.5349V31.3071H47.5399Z" fill="white"/>
</svg>
