<svg width="104" height="104" viewBox="0 0 104 104" fill="none" xmlns="http://www.w3.org/2000/svg">
<g clip-path="url(#clip0_292_36)">
<path d="M0 0H104V104H0V0Z" fill="#F7DF1E"/>
<path d="M27.3456 86.9097L35.3041 82.0932C36.8397 84.8155 38.2364 87.1189 41.5867 87.1189C44.7981 87.1189 46.8233 85.8628 46.8233 80.9764V47.746H56.5964V81.1146C56.5964 91.2371 50.6627 95.8448 42.0056 95.8448C34.1873 95.8448 29.6491 91.7957 27.3452 86.9089M61.9049 85.8624L69.8625 81.2551C71.9576 84.6762 74.6802 87.1892 79.4967 87.1892C83.5467 87.1892 86.1288 85.1645 86.1288 82.3719C86.1288 79.0212 83.476 77.8341 79.008 75.88L76.5652 74.8319C69.514 71.8309 64.8368 68.061 64.8368 60.1025C64.8368 52.7721 70.4215 47.187 79.1482 47.187C85.3614 47.187 89.8293 49.3515 93.0403 55.0061L85.4304 59.8933C83.7547 56.8915 81.9403 55.7049 79.1478 55.7049C76.2853 55.7049 74.4702 57.52 74.4702 59.8933C74.4702 62.8252 76.2853 64.0127 80.4738 65.8278L82.917 66.8747C91.2248 70.4355 95.9019 74.0653 95.9019 82.2326C95.9019 91.0295 88.9908 95.846 79.706 95.846C70.6307 95.846 64.7665 91.5178 61.9045 85.8628" fill="black"/>
</g>
<defs>
<clipPath id="clip0_292_36">
<rect width="104" height="104" rx="29" fill="white"/>
</clipPath>
</defs>
</svg>
